<svg version="1.1" xmlns="http://www.w3.org/2000/svg" viewBox="0 0 172 172">
<path fill="#888" d="M21.5,35.83333c-2.58456,-0.03655 -4.98858,1.32136 -6.29153,3.55376c-1.30295,2.2324 -1.30295,4.99342 0,7.22582c1.30295,2.2324 3.70697,3.59031 6.29153,3.55376h129c2.58456,0.03655 4.98858,-1.32136 6.29153,-3.55376c1.30295,-2.2324 1.30295,-4.99342 0,-7.22582c-1.30295,-2.2324 -3.70697,-3.59031 -6.29153,-3.55376zM21.5,78.83333c-2.58456,-0.03655 -4.98858,1.32136 -6.29153,3.55376c-1.30295,2.2324 -1.30295,4.99342 0,7.22582c1.30295,2.2324 3.70697,3.59031 6.29153,3.55376h129c2.58456,0.03655 4.98858,-1.32136 6.29153,-3.55376c1.30295,-2.2324 1.30295,-4.99342 0,-7.22582c-1.30295,-2.2324 -3.70697,-3.59031 -6.29153,-3.55376zM21.5,121.83333c-2.58456,-0.03655 -4.98858,1.32136 -6.29153,3.55376c-1.30295,2.2324 -1.30295,4.99342 0,7.22582c1.30295,2.2324 3.70697,3.59031 6.29153,3.55376h129c2.58456,0.03655 4.98858,-1.32136 6.29153,-3.55376c1.30295,-2.2324 1.30295,-4.99342 0,-7.22582c-1.30295,-2.2324 -3.70697,-3.59031 -6.29153,-3.55376z" />
</svg>
