<svg xmlns="http://www.w3.org/2000/svg" viewBox="0 0 50 50">
    <path stroke="#888" stroke-width=".5" fill="#888" d="M -3 8 C -2.734375 8 -2.48046875 8.10546875 -2.29296875 8.29296875 C -2.10546875 8.48046875 -2 8.734375 -2 9 L -2 26.265625 C -2.29296875 26.09765625 -2.63671875 26 -3 26 L -4 26 L -4 10 L -46 10 L -46 44 L -29.999998092651367 44 L -29.999998092651367 45 C -29.999998092651367 45.36328125 -29.902341842651367 45.70703125 -29.734373092651367 46 L -47 46 C -47.265625 46 -47.51953125 45.89453125 -47.70703125 45.70703125 C -47.89453125 45.51953125 -48 45.265625 -48 45 L -48 9 C -48 8.734375 -47.89453125 8.48046875 -47.70703125 8.29296875 C -47.51953125 8.10546875 -47.265625 8 -47 8 Z M -36 13 C -35.640625 12.99609375 -35.3046875 13.18359375 -35.12109375 13.49609375 C -34.94140625 13.80859375 -34.94140625 14.19140625 -35.12109375 14.50390625 C -35.3046875 14.81640625 -35.640625 15.00390625 -36 15 L -39.5859375 15 L -29.292966842651367 25.29296875 C -29.031248092651367 25.54296875 -28.925779342651367 25.91796875 -29.019529342651367 26.265625 C -29.109373092651367 26.6171875 -29.382810592651367 26.890625 -29.734373092651367 26.98046875 C -30.082029342651367 27.07421875 -30.457029342651367 26.96875 -30.707029342651367 26.70703125 L -41 16.4140625 L -41 20 C -40.99609375 20.359375 -41.18359375 20.6953125 -41.49609375 20.87890625 C -41.80859375 21.05859375 -42.19140625 21.05859375 -42.50390625 20.87890625 C -42.81640625 20.6953125 -43.00390625 20.359375 -43 20 L -43 13 Z M -3 28 C -2.44921875 28 -2 28.44921875 -2 29 L -2 45 C -2 45.55078125 -2.44921875 46 -3 46 L -26.999998092651367 46 C -27.550779342651367 46 -27.999998092651367 45.55078125 -27.999998092651367 45 L -27.999998092651367 29 C -27.999998092651367 28.44921875 -27.550779342651367 28 -26.999998092651367 28 Z M -4 30 L -25.999998092651367 30 L -25.999998092651367 44 L -4 44 Z" transform="matrix(1 0 0 1 50 0)" />
</svg>
