<svg xmlns="http://www.w3.org/2000/svg" viewBox="0 0 48 48" fill="#888">
  <path d="M 24.5 5 C 22.458 5 20.737 5.82 19.629 7.066 C 18.521 8.313 18 9.917 18 11.5 C 18 13.083 18.521 14.687 19.629 15.934 C 20.439 16.845 21.65 17.394 23 17.695 L 23 30.305 C 21.65 30.606 20.439 31.155 19.629 32.066 C 18.521 33.313 18 34.917 18 36.5 C 18 38.083 18.521 39.687 19.629 40.934 C 20.737 42.18 22.458 43 24.5 43 C 28.072 43 31 40.072 31 36.5 C 31 33.596 28.671 31.193 26.028 30.368 C 26.08 30.296 26 17.695 26 17.695 C 28.835 16.997 31 14.541 31 11.5 C 31 7.928 28.072 5 24.5 5 Z M 24.5 8 C 26.451 8 28 9.549 28 11.5 C 28 13.42 26.493 14.935 24.586 14.982 C 24.527 14.979 24.467 14.979 24.408 14.982 C 23.182 14.958 22.413 14.551 21.871 13.941 C 21.313 13.313 21 12.417 21 11.5 C 21 10.583 21.313 9.687 21.871 9.059 C 22.43 8.43 23.208 8 24.5 8 Z" style="transform-origin: 24.5px 24px;" transform="matrix(-1, 0, 0, -1, 0, 0)"/>
</svg>
