<svg xmlns="http://www.w3.org/2000/svg" viewBox="0 0 48 48" fill="#888">
    <path d="M 13.5 5 C 11.458 5 9.737 5.82 8.629 7.066 C 7.521 8.313 7 9.917 7 11.5 C 7 13.083 7.521 14.687 8.629 15.934 C 9.439 16.845 10.65 17.394 12 17.695 L 12 30.305 C 10.65 30.606 9.439 31.155 8.629 32.066 C 7.521 33.313 7 34.917 7 36.5 C 7 38.083 7.521 39.687 8.629 40.934 C 9.737 42.18 11.458 43 13.5 43 C 17.072 43 20 40.072 20 36.5 C 20 33.596 18.03 31.21 15.387 30.385 C 15.439 30.313 15.421 30.166 15.486 30.098 C 15.806 29.763 16.385 29.433 17.23 29.168 C 18.921 28.637 21.526 28.421 24.229 28.006 C 26.931 27.591 29.792 26.971 32.111 25.252 C 34.185 23.716 35.591 21.178 35.881 17.719 C 38.775 17.064 41 14.583 41 11.5 C 41 7.928 38.072 5 34.5 5 C 32.458 5 30.737 5.82 29.629 7.066 C 28.521 8.313 28 9.917 28 11.5 C 28 13.083 28.521 14.687 29.629 15.934 C 30.397 16.798 31.531 17.329 32.791 17.652 C 32.54 20.191 31.712 21.815 30.326 22.842 C 28.708 24.041 26.319 24.648 23.771 25.039 C 21.224 25.431 18.579 25.601 16.332 26.307 C 15.869 26.452 15.43 26.645 15 26.855 L 15 17.695 C 17.835 16.997 20 14.541 20 11.5 C 20 7.928 17.072 5 13.5 5 Z M 34.5 8 C 36.451 8 38 9.549 38 11.5 C 38 13.42 36.493 14.935 34.586 14.982 C 34.527 14.979 34.467 14.979 34.408 14.982 C 33.182 14.958 32.413 14.551 31.871 13.941 C 31.313 13.313 31 12.417 31 11.5 C 31 10.583 31.313 9.687 31.871 9.059 C 32.43 8.43 33.208 8 34.5 8 Z" transform="matrix(0, 1, -1, 0, 48, 0)"/>
</svg>
