<svg xmlns="http://www.w3.org/2000/svg" viewBox="0 0 30 30">
    <path fill="currentColor" d="M 15 2 C 8.3844239 2 3 7.3844287 3 14 C 3 20.615571 8.3844239 26 15 26 L 25 26 C 26.105 26 27 25.105 27 24 L 27 14 C 27 7.3844287 21.615576 2 15 2 z M 15 4 C 20.534697 4 25 8.465307 25 14 C 25 19.534693 20.534697 24 15 24 C 9.4653034 24 5 19.534693 5 14 C 5 8.465307 9.4653034 4 15 4 z M 15.953125 6.9863281 A 1.0001 1.0001 0 0 0 15.013672 7.8359375 L 13.013672 19.835938 A 1.0001 1.0001 0 1 0 14.986328 20.164062 L 16.986328 8.1640625 A 1.0001 1.0001 0 0 0 15.953125 6.9863281 z M 10.980469 9.9882812 A 1.0001 1.0001 0 0 0 10.167969 10.445312 L 8.1679688 13.445312 A 1.0001 1.0001 0 0 0 8.1679688 14.554688 L 10.167969 17.554688 A 1.0001 1.0001 0 1 0 11.832031 16.445312 L 10.201172 14 L 11.832031 11.554688 A 1.0001 1.0001 0 0 0 10.980469 9.9882812 z M 18.988281 9.9882812 A 1.0001 1.0001 0 0 0 18.167969 11.554688 L 19.798828 14 L 18.167969 16.445312 A 1.0001 1.0001 0 1 0 19.832031 17.554688 L 21.832031 14.554688 A 1.0001 1.0001 0 0 0 21.832031 13.445312 L 19.832031 10.445312 A 1.0001 1.0001 0 0 0 18.988281 9.9882812 z"/>
</svg>
