<svg xmlns="http://www.w3.org/2000/svg" xmlns:xlink="http://www.w3.org/1999/xlink" viewBox="0 0 50 50" version="1.1">
<path stroke="#888" stroke-width=".5" fill="#888" d="M -3 8 C -2.734375 8 -2.48046875 8.10546875 -2.29296875 8.29296875 C -2.10546875 8.48046875 -2 8.734375 -2 9 L -2 26.265625 C -2.29296875 26.09765625 -2.63671875 26 -3 26 L -4 26 L -4 10 L -46 10 L -46 44 L -29.999998092651367 44 L -29.999998092651367 45 C -29.999998092651367 45.36328125 -29.902341842651367 45.70703125 -29.734373092651367 46 L -47 46 C -47.265625 46 -47.51953125 45.89453125 -47.70703125 45.70703125 C -47.89453125 45.51953125 -48 45.265625 -48 45 L -48 9 C -48 8.734375 -47.89453125 8.48046875 -47.70703125 8.29296875 C -47.51953125 8.10546875 -47.265625 8 -47 8 Z M -35.98592758178711 27.01408576965332 C -36.34530258178711 27.01799201965332 -36.68124008178711 26.83049201965332 -36.86483383178711 26.51799201965332 C -37.04452133178711 26.20549201965332 -37.04452133178711 25.82267951965332 -36.86483383178711 25.51017951965332 C -36.68124008178711 25.19767951965332 -36.34530258178711 25.01017951965332 -35.98592758178711 25.01408576965332 L -32.39999008178711 25.01408576965332 L -42.692962646484375 14.721118927001953 C -42.954681396484375 14.471118927001953 -43.060150146484375 14.096118927001953 -42.966400146484375 13.748462677001953 C -42.876556396484375 13.396900177001953 -42.603118896484375 13.123462677001953 -42.251556396484375 13.033618927001953 C -41.903900146484375 12.939868927001953 -41.528900146484375 13.045337677001953 -41.278900146484375 13.307056427001953 L -30.98592185974121 23.60002326965332 L -30.98592185974121 20.01408576965332 C -30.98982810974121 19.65471076965332 -30.80232810974121 19.31877326965332 -30.48982810974121 19.13517951965332 C -30.17732810974121 18.95549201965332 -29.79451560974121 18.95549201965332 -29.48201560974121 19.13517951965332 C -29.16951560974121 19.31877326965332 -28.98201560974121 19.65471076965332 -28.98592185974121 20.01408576965332 L -28.98592185974121 27.01408576965332 Z M -3 28 C -2.44921875 28 -2 28.44921875 -2 29 L -2 45 C -2 45.55078125 -2.44921875 46 -3 46 L -26.999998092651367 46 C -27.550779342651367 46 -27.999998092651367 45.55078125 -27.999998092651367 45 L -27.999998092651367 29 C -27.999998092651367 28.44921875 -27.550779342651367 28 -26.999998092651367 28 Z M -4 30 L -25.999998092651367 30 L -25.999998092651367 44 L -4 44 Z" transform="matrix(1 0 0 1 50 -7.10543e-15)"></path>
</svg>
