<svg xmlns="http://www.w3.org/2000/svg" viewBox="0 0 172 172">
    <path fill="#888" d="M26.875,21.5c-8.84221,0 -16.125,7.28279 -16.125,16.125v96.75c0,8.84221 7.28279,16.125 16.125,16.125h37.625v-10.75h-37.625c-3.02579,0 -5.375,-2.34921 -5.375,-5.375v-96.75c0,-3.02579 2.34921,-5.375 5.375,-5.375h118.25c3.02579,0 5.375,2.34921 5.375,5.375v26.875h10.75v-26.875c0,-8.84221 -7.28279,-16.125 -16.125,-16.125zM78.35742,43l-24.37646,83.54345l-0.23096,2.45655h10.68701l6.27783,-21.5h15.09619l10.75,-10.75h-22.69678l12.19873,-41.76123l11.73682,40.52246l8.6084,-8.6084l-12.63965,-43.90283zM137.46142,75.29199c-2.61253,0 -5.21878,0.97757 -7.18066,2.93945l-52.04932,52.07031c-3.92375,3.92375 -3.92375,10.43757 0,14.36132l24.35547,24.35547c3.92375,3.92375 10.43757,3.92375 14.36132,0l52.04932,-52.04932c3.94035,-3.91783 3.94035,-10.4645 0,-14.38232l-24.33447,-24.35547c-1.96187,-1.96188 -4.58912,-2.93945 -7.20166,-2.93945zM137.46142,86.25195l23.53662,23.53663l-21.81493,21.79394l-23.51562,-23.51563zM108.06689,115.66748l23.51563,23.51562l-21.81493,21.81493l-23.51563,-23.51562z"/>
</svg>
