<svg xmlns="http://www.w3.org/2000/svg" viewBox="0 4 172 176">
    <path fill="#888" stroke="#888" stroke-width="1.5" d="M25.86719,12.84961l-7.64257,7.64257l3.82128,3.7793l7.60059,7.60058l3.77929,3.82129l7.64258,-7.64258l-3.82129,-3.77929l-7.60058,-7.60059zM146.13281,12.84961l-3.77929,3.82128l-11.37989,11.37989l7.60058,7.64258l3.7793,-3.82129l11.37987,-11.37989zM86,21.5c-23.68359,0 -43,19.31641 -43,43c0,14.86524 6.50879,23.43165 11.75781,30.73828c5.29102,7.26465 9.74219,13.4375 9.74219,28.38672v10.75c0,6.97071 4.57715,12.93359 10.83399,15.11719c-0.042,0.33594 -0.08399,0.67188 -0.08399,1.00781c0,5.9209 4.8291,10.75 10.75,10.75c5.9209,0 10.75,-4.8291 10.75,-10.75c0,-0.33594 0,-0.67187 -0.04199,-1.00781c6.25683,-2.22558 10.79199,-8.14648 10.79199,-15.11719v-10.75c0,-14.94922 4.45118,-21.12207 9.74219,-28.38672c5.24902,-7.30664 11.75781,-15.87304 11.75781,-30.73828c0,-23.68359 -19.31641,-43 -43,-43zM86,32.25c17.88868,0 32.25,14.36133 32.25,32.25c0,12.00977 -4.24121,16.88086 -9.74219,24.35547c-4.74511,6.59277 -9.44824,15.87305 -10.75,29.39453h-23.51562c-1.30176,-13.52148 -6.00489,-22.80176 -10.75,-29.39453c-5.50098,-7.4746 -9.74219,-12.3457 -9.74219,-24.35547c0,-17.88867 14.36133,-32.25 32.25,-32.25zM10.75,64.5v10.75h21.5v-10.75zM139.75,64.5v10.75h21.5v-10.75zM33.42578,104.05665l-3.77929,3.82128l-7.60059,7.60059l-3.82128,3.77929l7.64257,7.60058l11.37989,-11.37987l3.82129,-3.7793zM138.57422,104.05665l-7.60058,7.64257l15.15918,15.15918l7.60058,-7.60058l-11.37987,-11.37989zM75.25,129h21.5v5.375c0,3.02344 -2.35156,5.375 -5.375,5.375h-10.75c-3.02344,0 -5.375,-2.35156 -5.375,-5.375z" />
</svg>
