<svg version="1.1" xmlns="http://www.w3.org/2000/svg" viewBox="0 0 172 172">
<path fill="#aaa" d="M80.625,10.75c-38.50683,0 -69.875,31.36817 -69.875,69.875c0,38.50683 31.36817,69.875 69.875,69.875c38.50683,0 69.875,-31.36817 69.875,-69.875c0,-38.50683 -31.36817,-69.875 -69.875,-69.875zM80.625,21.5c32.71192,0 59.125,26.41308 59.125,59.125c0,32.71192 -26.41308,59.125 -59.125,59.125c-32.71192,0 -59.125,-26.41308 -59.125,-59.125c0,-32.71192 26.41308,-59.125 59.125,-59.125zM75.25,43v32.25h-32.25v10.75h32.25v32.25h10.75v-32.25h32.25v-10.75h-32.25v-32.25z" />
</svg>
