<svg xmlns="http://www.w3.org/2000/svg" viewBox="0 0 172 172">
<path fill="#888" d="M26.875,10.75c-8.86035,0 -16.125,7.26465 -16.125,16.125v86c0,8.86035 7.26465,16.125 16.125,16.125h16.125v5.375c0,8.86035 7.26465,16.125 16.125,16.125h86c8.86035,0 16.125,-7.26465 16.125,-16.125v-86c0,-8.86035 -7.26465,-16.125 -16.125,-16.125h-16.125v-5.375c0,-8.86035 -7.26465,-16.125 -16.125,-16.125zM26.875,21.5h86c3.02344,0 5.375,2.35156 5.375,5.375v86c0,3.02344 -2.35156,5.375 -5.375,5.375h-86c-3.02344,0 -5.375,-2.35156 -5.375,-5.375v-86c0,-3.02344 2.35156,-5.375 5.375,-5.375zM70.50489,32.29199c-13.01758,0.71388 -23.6416,11.63184 -23.6416,24.90138h10.75c0,-8.73437 7.55859,-15.53711 16.75489,-13.94141c6.63476,1.13378 11.84179,7.60058 11.63183,14.36132c-0.16797,6.00489 -3.65332,9.78418 -8.77636,12.00977h-0.04199c-3.14942,1.42773 -6.17285,2.77148 -8.73437,5.45898c-2.56153,2.6875 -3.94727,6.67676 -3.94727,10.91797h10.75c0,-2.39355 0.29395,-2.77148 0.96582,-3.48535c0.67188,-0.71386 2.39355,-1.72168 5.33301,-3.02344c8.0205,-3.52734 14.86523,-11.16992 15.20117,-21.54199c0.33594,-12.21973 -8.39844,-23.22168 -20.53418,-25.32129c-1.93165,-0.33594 -3.86328,-0.41992 -5.71094,-0.33594zM129,43h16.125c3.02344,0 5.375,2.35156 5.375,5.375v86c0,3.02344 -2.35156,5.375 -5.375,5.375h-86c-3.02344,0 -5.375,-2.35156 -5.375,-5.375v-5.375h59.125c8.86035,0 16.125,-7.26465 16.125,-16.125zM64.5,96.75v10.75h10.75v-10.75z" />
</svg>
