<svg xmlns="http://www.w3.org/2000/svg" viewBox="0 0 24 24">
    <path fill="#75a3bf" stroke="rgba(255,255,255,.9)" d="M 4 3 C 3.476563 3 2.941406 3.183594 2.5625 3.5625 C 2.183594 3.941406 2 4.476563 2 5 L 2 19 C 2 19.523438 2.183594 20.058594 2.5625 20.4375 C 2.941406 20.816406 3.476563 21 4 21 L 20 21 C 20.523438 21 21.058594 20.816406 21.4375 20.4375 C 21.816406 20.058594 22 19.523438 22 19 L 22 5 C 22 4.476563 21.816406 3.941406 21.4375 3.5625 C 21.058594 3.183594 20.523438 3 20 3 Z M 4 7 L 20 7 L 20 19 L 4 19 Z M 6 9 L 6 11 L 12 11 L 12 9 Z M 10 12 L 10 14 L 18 14 L 18 12 Z M 6 15 L 6 17 L 12 17 L 12 15 Z "/>
</svg>
