<svg xmlns="http://www.w3.org/2000/svg" viewBox="-6 -4 136 140">
    <rect x="65.6" y="24.6" transform="matrix(0.9397 -0.342 0.342 0.9397 -9.9426 31.828)" fill="#FFFFFF" width="39.3" height="39"></rect>
    <rect x="70.6" y="52.7" transform="matrix(-0.9397 0.342 -0.342 -0.9397 194.7852 81.1204)" fill="#C7D7E2" width="39.3" height="10"></rect>
    <path fill="#98BED8" d="M111.5,54.6l-1.1,1.1L97.1,19.1l1.5,0.2c8,0.9,14.7,6.2,17.4,13.7l0,0C118.8,40.4,117,48.8,111.5,54.6z"></path>
    <path fill="#454B54" d="M73.5,72.2c-1.2,0-2.4-0.8-2.8-2L57.3,33.5c-0.3-0.7-0.2-1.6,0.1-2.3c0.3-0.7,0.9-1.3,1.7-1.6l36.9-13.4c1.6-0.6,3.3,0.2,3.8,1.8l13.3,36.6c0.3,0.7,0.2,1.6-0.1,2.3c-0.3,0.7-0.9,1.3-1.7,1.6L74.5,72C74.2,72.1,73.8,72.2,73.5,72.2zM64,34.3l11.3,31l31.3-11.4l-11.3-31L64,34.3z"></path>
    <rect x="35" y="46.7" transform="matrix(0.9397 -0.342 0.342 0.9397 -16.2011 20.988)" fill="#FFFFFF" width="32.8" height="19.5"></rect>
    <rect x="37.3" y="59.8" transform="matrix(-0.9397 0.342 -0.342 -0.9397 125.6763 103.3946)" fill="#C7D7E2" width="32.8" height="6"></rect>
    <path fill="#454B54" d="M39.4,74.2c-0.4,0-0.9-0.1-1.3-0.3c-0.7-0.3-1.3-0.9-1.6-1.7l-6.7-18.3c-0.3-0.7-0.2-1.6,0.1-2.3c0.3-0.7,0.9-1.3,1.7-1.6l30.8-11.2c0.7-0.3,1.6-0.2,2.3,0.1c0.7,0.3,1.3,0.9,1.6,1.7L73,59c0.6,1.6-0.2,3.3-1.8,3.8L40.4,74C40,74.1,39.7,74.2,39.4,74.2z M36.5,54.7l4.6,12.7l25.2-9.2l-4.6-12.7L36.5,54.7z"></path>
    <path fill="#454B54" d="M70,118.9c-1.2,0-2.4-0.7-2.8-1.9l-14-37.2l-8.4,3.1l-17.2,34.4c-0.7,1.5-2.5,2.1-4,1.3c-1.5-0.7-2.1-2.5-1.3-4L40,79c0.3-0.7,0.9-1.2,1.7-1.5L54,73.1c1.5-0.6,3.3,0.2,3.8,1.8l15,40c0.6,1.6-0.2,3.3-1.8,3.9C70.7,118.8,70.4,118.9,70,118.9z"></path>
    <path fill="#454B54" d="M13.6,80.1c-1.2,0-2.4-0.8-2.8-2L6.3,65.9c-0.6-1.6,0.2-3.3,1.8-3.8c1.6-0.6,3.3,0.2,3.8,1.8l4.4,12.2c0.6,1.6-0.2,3.3-1.8,3.8C14.3,80.1,14,80.1,13.6,80.1z"></path>
    <path fill="#454B54" d="M13.2,73.3c-1.2,0-2.4-0.8-2.8-2c-0.6-1.6,0.2-3.3,1.8-3.8L35,59.2c1.6-0.6,3.3,0.2,3.8,1.8c0.6,1.6-0.2,3.3-1.8,3.8l-22.8,8.3C13.9,73.3,13.6,73.3,13.2,73.3z"></path>
</svg>
